# xmcd CD database file
#
# Track frame offsets:
#	150
#	12207
#	25982
#	36567
#	56332
#	68840
#	77832
#	89475
#	105600
#	119907
#	135197
#	149055
#	160717
#
# Disc length: 2303 seconds
#
# Revision: 0
# Processed by: cddbd v1.5.1PL2 Copyright (c) Steve Scherf et al.
# Submitted via: Feurio! 1.68 - http://www.feurio.com
#
DISCID=b308fd0d
DTITLE=Poor Little Fools - Play The Fools
DYEAR=1900
DGENRE=Rockabilly
TTITLE0=Big Love Train
TTITLE1=Ronnie and Tina
TTITLE2=Three Lefts Do
TTITLE3=No Noel
TTITLE4=Pale Imitation Of Love
TTITLE5=Donna Goes To Tijuana
TTITLE6=Forget About It All
TTITLE7=Love's Last Stand
TTITLE8=Dean Martin (Gets Chicks!)
TTITLE9=Say What I Mean
TTITLE10=Lonesome Cadillac
TTITLE11=Honey, Do You Think I'm A Fool?
TTITLE12=Five Women
EXTD=
EXTT0=
EXTT1=
EXTT2=
EXTT3=
EXTT4=
EXTT5=
EXTT6=
EXTT7=
EXTT8=
EXTT9=
EXTT10=
EXTT11=
EXTT12=
PLAYORDER=
